# xmcd
#
# Track frame offsets: 
#        182
#        12397
#        26040
#        38710
#        51540
#        63800
#        79232
#        91497
#        104890
#        116037
#        129912
#        141747
#        155980
#        170672
#
# Disc length: 2428 seconds
#
# Revision: 0
# Processed by: cddbd v1.5.2PL0 Copyright (c) Steve Scherf et al.
# Submitted via: ExactAudioCopyFreeDBPlugin 1.0
#
DISCID=d2097a0e
DTITLE=Gilou - L'Ambiance Chez Vous !
DYEAR=1900
DGENRE=Instrumental
TTITLE0=Le P'tit Bal De La Marine
TTITLE1=Le Temps Des Puces
TTITLE2=Le Tord Boyau
TTITLE3=Le Tango De La Musardière
TTITLE4=Sentimental Tango
TTITLE5=Case Pêche
TTITLE6=Le Gambadou
TTITLE7=La Fête Au Village
TTITLE8=Viens Boire Un P'tit Coup À La Maison
TTITLE9=Les Copines À Gilou
TTITLE10=Rue De La Gaîté
TTITLE11=Saga Auvergnat
TTITLE12=Viva El Vino
TTITLE13=Paquita
EXTD=
EXTT0=
EXTT1=
EXTT2=
EXTT3=
EXTT4=
EXTT5=
EXTT6=
EXTT7=
EXTT8=
EXTT9=
EXTT10=
EXTT11=
EXTT12=
EXTT13=
PLAYORDER=
